<svg xmlns="http://www.w3.org/2000/svg" width="87" height="71" fill="none" viewBox="0 0 87 71"><path fill="#114a08" d="M75.281 39.63c1.81 4.925.56 9.278-3.472 12.174-.817.587-1.294 1.423-1.914 2.487 1.69-.548 2.901-1.476 3.96-2.636 2.442-2.673 3.794-5.966 4.607-9.572.159-.703-.219-1.082-.511-1.532-3.245-4.987-3.083-10.912.435-15.588.969-1.287 1.31-1.319 2.265-.055 2.562 3.39 3.782 7.149 2.566 11.528-.491 1.768-1.425 3.253-2.66 4.503-.63.637-.838 1.395-.875 2.396 1.267-.552 2.406-1.184 3.683-1.39a9.8 9.8 0 0 1 2.373-.106c1.21.1 1.449.49 1.14 1.743-.976 3.949-4.146 6.626-8.172 6.63-1.426.002-2.345.431-3.236 1.642-2.835 3.855-6.825 4.893-11.129 4.979-2.606.052-5.22-.144-7.812.298-3.64.62-6.93 2.014-9.434 5.1-.407.502-.852 1.001-1.054 2.067 1.184-1.05 2.156-1.857 3.22-2.52 3.358-2.096 6.948-2.8 10.798-2.411 3.038.308 6.106.67 9.08-.575 2.123-.89 3.91-2.299 5.487-4.043 1.213-1.344 2.57-2.398 4.291-2.844 2.412-.625 5.019.395 6.307 2.498 1.378 2.25 1.363 4.971-.039 7.024-1.181 1.73-3.127 2.473-5.025 1.92-1.757-.511-2.85-1.886-3.045-3.83-.24-2.415 1.731-4.425 3.905-3.978.946.195 1.526.822 1.845 1.789.285.862.104 1.617-.407 2.294-.275.364-.642.66-1.08.347-.414-.296-.254-.692-.036-1.073.33-.579.402-1.182-.129-1.659-.524-.47-1.125-.436-1.696-.07-.793.508-1.156 1.269-1.045 2.271.135 1.211.728 2.063 1.787 2.462 1.253.471 2.412.202 3.356-.803 1.03-1.096 1.546-2.44 1.217-4.017-.61-2.924-3.293-4.496-5.953-3.63-2.101.683-3.406 2.355-4.649 4.123-2.052 2.919-4.308 5.614-7.214 7.557-4.502 3.011-9.209 3.396-14.1 1.175-1.219-.554-2.46-1.017-3.819-1.069-1.287-.049-2.264.454-3.049 1.53-.735 1.007-1.285 2.117-1.717 3.307-.15.41-.266.913-.786.927-.565.015-.746-.485-.912-.947-.317-.88-.69-1.728-1.162-2.525-1.306-2.203-2.547-2.788-4.909-2.09-1.673.495-3.279 1.262-4.955 1.742-5.094 1.46-9.542-.127-13.553-3.57-2.21-1.897-4.016-4.207-5.706-6.634-1.211-1.74-2.636-3.168-4.683-3.647-1.955-.457-3.918.411-4.932 2.166a4.73 4.73 0 0 0 .25 5.164c1.295 1.8 3.633 1.976 4.94.373 1.04-1.275.711-3.353-.631-3.972-.573-.264-1.117-.212-1.575.27-.418.44-.387.94-.104 1.455.218.397.472.878-.008 1.182-.546.345-.938-.118-1.21-.572-.526-.875-.51-1.794.025-2.655.623-1.003 1.502-1.495 2.63-1.27 1.293.257 2.206 1.063 2.62 2.427.476 1.571.19 3.023-.863 4.212-1.314 1.482-2.954 1.803-4.697 1.124-2.05-.799-3.15-2.496-3.34-4.821-.332-4.072 3.214-7.403 6.922-6.591a8.1 8.1 0 0 1 4.576 2.778c3.533 4.222 7.922 5.622 13.022 4.895 5.519-.788 10.617.203 14.99 4.215.136.125.278.283.614.124-.755-1.567-1.877-2.745-3.17-3.726-2.744-2.083-5.875-2.93-9.164-3.206-2.603-.22-5.214.034-7.821-.2-3.883-.35-7.18-1.932-9.607-5.285-.675-.932-1.386-1.177-2.406-1.172-3.985.02-6.909-2.04-8.324-5.76a7 7 0 0 1-.264-.81c-.34-1.414-.1-1.77 1.252-1.856 1.026-.065 2.038.01 3.03.335.936.305 1.863.632 2.806 1.229.139-.997-.1-1.698-.672-2.298-4.866-5.097-3.842-11.713.03-16.496.715-.884 1.218-.624 1.835.113 3.518 4.202 3.926 10.717.86 15.464-.627.973-.795 1.839-.489 2.962 1.017 3.731 2.571 7.08 5.435 9.573.83.723 1.781 1.167 2.968 1.732-.759-1.303-1.418-2.243-2.427-2.979-4.294-3.131-5.155-9.421-1.992-13.862.462-.649.876-.793 1.485-.183 3.212 3.215 4.177 7.174 3.368 11.737-.221 1.25-.834 2.484.277 3.67 1.378 1.473 2.759 2.832 5.067 2.451-.634-.582-1.211-1.058-1.73-1.6-2.111-2.206-1.971-5.748.264-7.08a2.934 2.934 0 0 1 3.585.487c.938.972 1.201 2.343.665 3.469-.49 1.03-1.647 1.479-2.496.974-.363-.217-.608-.51-.492-.988.116-.479.477-.49.821-.39.444.132.821.192 1.006-.405.177-.568.065-1.07-.327-1.462-.536-.534-1.169-.739-1.885-.459-.805.314-1.2.998-1.277 1.864-.12 1.338.459 2.437 1.352 3.236 1.696 1.516 3.658 2.346 5.894 2.532 5.166.431 9.893 1.95 13.203 6.718.822 1.184 1.292 2.567 1.968 3.968.572-1.453 1.092-2.806 1.902-3.988 2.333-3.404 5.59-5.15 9.295-6.116 1.553-.405 3.14-.468 4.712-.689 1.637-.23 3.135-.885 4.495-1.907.906-.682 1.518-1.608 1.84-2.73.278-.976.081-1.887-.651-2.57-.57-.532-1.239-.577-1.912-.227-.615.32-.906.879-.806 1.605.104.766.636.653 1.143.575.393-.06.682.129.745.563.062.421-.17.695-.51.858-.669.32-1.33.342-1.927-.169-.748-.64-1.03-1.507-.865-2.511.253-1.545 1.652-2.708 3.126-2.642 1.579.07 2.893 1.4 3.044 3.074.152 1.69-.246 3.17-1.416 4.35-.523.527-1.069 1.03-1.596 1.536 2.05.922 5.056-1.766 5.576-3.394.183-.575-.026-1.128-.155-1.684-1.05-4.526-.384-8.602 2.657-12.081 1.204-1.378 1.55-1.368 2.397.254.224.428.422.87.665 1.394M21.6 64.433a14.8 14.8 0 0 0 4.81 1.726c4.073.73 7.476-1.682 11.402-2.592-1.83-1.072-3.561-1.156-5.354-.873-1.81.286-3.466 1.142-5.223 1.62-.514.14-1.05.24-1.19-.471-.13-.656.425-.774.862-.9 1.707-.487 3.323-1.282 5.066-1.74-1.086-.387-2.175-.613-3.294-.523-3.872.311-7.753.94-11.56-.508-.029-.011-.096.096-.242.249 1.317 1.602 2.933 2.784 4.723 4.012m34.597-1.337c-2.38-.659-4.74-.993-7.16.628 2.05.148 3.728 1.006 5.46 1.665 3.287 1.25 6.549 1.132 9.725-.343a15.24 15.24 0 0 0 6.047-5.015c-3.418 1.44-6.918 1.154-10.411.76-1.7-.19-3.36-.098-5.12.326 1.833.624 3.561 1.2 5.28 1.807.438.155 1.112.23.916.97-.199.747-.819.583-1.334.407-1.08-.368-2.152-.764-3.403-1.205M6.488 34.372c.056-.773.103-1.548.17-2.32.038-.45.215-.82.694-.773.406.039.556.388.556.793-.001 1.103-.055 2.209-.017 3.31.042 1.195-.13 2.422.308 3.632 2.702-3.43 2.298-10.16-.72-12.933-3.302 2.696-3.79 9.365-.91 12.66.204-1.395-.103-2.766-.08-4.369m73.993 2.32c-.073.666-.281 1.33-.064 2.037 2.892-3.16 2.386-9.942-.91-12.667-2.698 2.825-3.629 9.146-.73 12.931.239-.505.26-1.025.261-1.547.004-1.717.002-3.434.002-5.152 0-.478.07-.972.594-1.019.542-.047.618.436.693.912.227 1.421.213 2.85.154 4.506M71.747 47c.118-.846.218-1.695.36-2.536.071-.419.26-.817.74-.747.41.06.498.473.538.837.03.276-.01.57-.056.848-.191 1.156-.395 2.31-.623 3.628 2.5-2.628 2.723-7.488.586-9.909-2.228 1.646-3.64 6.574-2.331 9.975.448-.554.486-1.28.786-2.096m-59.048-.501c.414.861.71 1.818 1.688 2.495-.106-.435-.164-.664-.218-.895-.269-1.148-.572-2.289-.53-3.492.015-.43.074-.861.569-.896.475-.033.638.359.71.787.04.24.02.49.055.731.194 1.333.318 2.693 1.148 3.906 1.013-3.832-.112-8.29-2.532-10.036-1.395 2.252-1.72 4.641-.89 7.4m66.76 2.185c2.445.019 5.6-2.424 5.786-5.163-2.325-.65-5.91 1.157-6.44 3.23.807-.421 1.609-.88 2.44-1.26.42-.192 1-.608 1.304.057.344.752-.34.97-.8 1.194-1.016.497-1.953 1.114-2.94 1.956.286 0 .398 0 .65-.014M6.342 45.74l1.803.95c-.87-2.265-4.508-3.916-6.451-3.086.583 2.907 3.815 5.496 6.118 4.839-.658-.683-1.473-1.023-2.212-1.49-.52-.327-1.513-.444-1.167-1.308.39-.976 1.153-.15 1.91.095"/><path fill="#0f5704" d="M33.187 31.326c.463 2.5 1.258 4.739 2.519 6.776.236.382.677.86.087 1.251-.511.34-.92-.012-1.234-.498-1.81-2.797-2.828-5.952-2.843-9.313-.012-2.825-1.4-4.566-3.13-6.21-1.026-.975-2.21-1.719-3.415-2.411-.435-.25-.892-.483-.806-1.177.093-.737.728-.39 1.13-.679.294-3.252.879-6.529-.108-10.05-.5 4.035-1.538 7.721-1.912 11.552-.716 7.35 1.16 13.591 6.485 18.428.334.303.798.507.811 1.137-.547.63-1.102.53-1.671.02-3.705-3.316-5.986-7.517-6.815-12.663a25 25 0 0 1-.195-6.6c.092-.902-.22-1.327-1.042-1.538-2.844-.73-5.703-1.176-8.64-.877.01.112-.007.223.028.248 3.615 2.615 4.967 6.78 6.34 10.915 1.366 4.109 3.318 7.723 6.881 10.051.703.46 1.42.89 2.167 1.356-.528 1.089-1.158.95-1.917.513-3.596-2.072-6.04-5.237-7.607-9.264-.94-2.415-1.627-4.94-2.726-7.284-.847-1.805-1.888-3.44-3.46-4.616-.06.092-.138.168-.125.195 1.687 3.652 2.403 7.665 3.642 11.483 1.684 5.184 4.668 9.134 9.4 11.36.575.27.949.654.681 1.298-.283.682-.823.216-1.176.05-4.395-2.062-7.564-5.487-9.467-10.246-1.084-2.712-1.743-5.583-2.534-8.404-.73-2.6-1.62-5.119-3.342-7.18-.273-.328-.633-.654-.41-1.175.206-.481.664-.52 1.067-.57 3.78-.476 7.55-.487 11.242.658.997.31 1.42.169 1.579-1.021.36-2.71 1.116-5.348 1.269-8.1.054-.989-.007-1.96-.12-2.94-.114-.974.28-1.398 1.094-1.08 3.924 1.533 7.51 3.664 10.323 7.103.353.431.628.89.122 1.377-.52.5-.797-.025-1.101-.377-2.254-2.613-4.913-4.576-8.244-6.023 1.298 2.782 1.29 5.55 1.192 8.322-.05 1.39-.178 2.775-.258 4.163-.03.505.03.983.48 1.293 1.6 1.1 3.065 2.372 4.178 3.974.346-.027.39-.242.424-.437.81-4.56 2.857-8.517 5.13-12.362C39.257 8.207 41.618 4.821 42.793.72c.101-.352.276-.702.687-.72.415-.017.604.31.712.671 1.337 4.477 3.946 8.183 6.235 12.08 2.044 3.479 3.74 7.111 4.515 11.189.042.224.077.491.414.638 1.235-1.56 2.645-2.96 4.29-4.064.413-.277.402-.759.39-1.214-.028-1.146.037-2.31-.12-3.436-.422-3.029-.104-5.948.956-9.003-3.153 1.39-5.8 3.25-8.014 5.832-.3.35-.537 1.1-1.138.53-.575-.544-.24-1.092.178-1.587C54.677 8.345 58.17 6.292 61.986 4.8c.696-.272 1.336-.179 1.198.785-.542 3.765.543 7.307 1.152 10.916.068.401.167.798.27 1.192.028.11.12.2.247.4 1.69-.434 3.411-.84 5.18-1.033 2.43-.265 4.83-.077 7.235.16.996.097 1.307.73.713 1.451-2.682 3.258-3.518 7.379-4.58 11.381-1.128 4.244-2.738 8.156-5.83 11.183-1.556 1.525-3.267 2.785-5.231 3.605-.349.146-.829.518-1.083-.096-.243-.586.037-1.006.575-1.254 5.433-2.502 8.47-7.16 10.075-13.123.926-3.443 1.69-6.95 3.436-10.348-2.128 1.49-3.32 3.457-4.198 5.648-.873 2.177-1.61 4.417-2.431 6.62-1.515 4.063-4.028 7.168-7.601 9.26-.73.427-1.34.503-1.857-.297.052-.49.444-.56.728-.71 3.962-2.105 6.42-5.6 7.93-9.992.62-1.803 1.236-3.61 1.938-5.377 1.043-2.626 2.552-4.886 5.028-6.617-3.362-.295-6.375-.002-9.339.929-.858.27-.66.981-.6 1.605.4 4.215-.215 8.243-1.872 12.08-1.21 2.8-3.079 5.032-5.21 7.038-.616.58-1.137.467-1.772-.213.781-.798 1.545-1.557 2.288-2.339 4.627-4.864 5.862-10.93 5.087-17.586-.419-3.601-1.178-7.156-1.807-10.87a13 13 0 0 0-.583 4.337c.044 1.388.217 2.772.336 4.157.061.717-.175 1.558.983 1.624.376.021.517.795.063 1.204-.315.283-.706.471-1.073.68-2.214 1.257-4.106 2.903-5.459 5.223-.397.683-.57 1.387-.569 2.2.002 3.22-.733 6.243-2.205 9.043-.279.531-.605 1.04-.961 1.514-.308.41-.734.43-1.108.101-.362-.318-.142-.675.053-.978a18 18 0 0 0 2.066-4.353c1.449-4.619.903-9.12-.642-13.565-1.413-4.065-3.728-7.578-5.885-11.185-1.13-1.891-2.175-3.833-3.086-6.002-1.158 2.148-2.22 4.197-3.351 6.2-1.676 2.967-3.565 5.788-4.969 8.942-1.823 4.096-2.581 8.362-2.078 12.987"/><path fill="#0f5704" d="M48.186 35.762c-.69 2.108-1.985 3.563-3.571 4.713 1.735 4.547 10.382 6.913 14.06 3.89-.144-.614-.67-.722-1.1-.91-2.377-1.045-4.895-1.326-7.418-1.565-.903-.086-1.807-.154-2.71-.22-.466-.033-.843-.19-.818-.777.023-.548.423-.622.821-.613 3.792.084 7.553.413 11.097 2.04 1.659.76 1.939 1.511 1.425 3.397-1.212 4.45-3.904 7.6-7.724 9.438-6.947 3.345-13.753 2.996-20.132-1.73-2.642-1.959-4.383-4.715-5.155-8.119-.33-1.458-.037-2.09 1.192-2.812 2.25-1.32 4.761-1.51 7.216-1.927 1.344-.228 2.702-.345 4.067-.295.477.018.973.046.942.745-.028.612-.5.616-.925.649-2.862.222-5.73.396-8.517 1.229-.473.141-.948.29-1.398.498-.43.2-1.093.255-1.091.898.002.66.666.695 1.11.85a9.4 9.4 0 0 0 3.231.548c2.995-.04 5.753-.84 8.083-2.99.605-.56 1.163-1.163 1.492-1.936-.067-.362-.32-.482-.535-.643-3.623-2.703-4.373-6.607-2.037-10.665.48-.834.985-1.651 1.504-2.456.766-1.189 1.039-2.525 1.085-3.943.013-.41.056-.835.48-1.03.427-.196.731.06.998.364 2.695 3.09 4.612 6.57 4.678 10.98.011.789-.175 1.539-.35 2.392m8.553 13.677c.558-.838 1.126-1.671 1.463-2.971-2.841.772-5.45.824-8.05.081-2.682-.765-4.87-2.351-6.591-4.782-3.968 5.132-9.015 6.101-14.823 4.749.852 2.015 1.837 3.633 3.25 4.925 3.935 3.595 8.55 4.803 13.55 4.275 4.396-.464 8.245-2.3 11.201-6.277m-10.1-13.488c1.28-3.384-.32-9.402-3.042-11.291-.277 1.577-.958 2.934-1.806 4.207-.71 1.067-1.36 2.179-1.702 3.453-.452 1.681-.357 3.277.814 4.858.16-1.067.33-1.944.73-2.742.415-.825.877-1.616 1.178-2.514.238-.708.788-.758 1.26-.242.367.4.663.89.936 1.376.636 1.13.804 2.434 1.01 3.722.397-.112.411-.45.622-.827m-4.031-.289c-.37 1.06-.296 2.074.273 3.03.443.746.814.65 1.255-.055.633-1.015.58-3.913-.574-4.847a63 63 0 0 0-.954 1.872"/></svg>