<svg xmlns="http://www.w3.org/2000/svg" width="87" height="73" fill="none" viewBox="0 0 87 73"><path fill="#0f450f" d="M5.773 35.847c-2.182-2.225-3.795-4.763-4.16-7.928-.313-2.708.347-5.25 1.397-7.95 1.667 1.452 2.606 3.198 4.08 4.567C3.917 18.498 5.68 13.363 9.94 8.28c.99 2.466 1.687 4.658 2.24 7.056.086-1.578.264-3.003.755-4.386.51-1.436 1.21-2.747 2.222-3.88.983-1.098 2.183-1.923 3.471-2.63a16.5 16.5 0 0 1 4.216-1.637c.259 1.207-.107 2.203-.226 3.534 1.548-2.784 3.594-4.605 6.396-5.472 2.732-.846 5.469-.913 8.5.075-3.11 3.538-5.754 7.28-10.963 7.928 1.417.59 2.752.693 3.935 1.62-1.565 1.88-3.278 3.612-5.52 4.355-2.183.724-3.435 1.94-4.143 4.06-.477 1.427-1.56 2.545-2.585 3.649-.31.334-.64.632-.64 1.161 0 2.933-1.001 5.543-2.652 7.977 1.486.888 1.362 2.501 1.293 3.753-.167 3.016.346 5.773 1.715 8.459.493.966.52 2.17.78 3.357.69-.065 1.175.395 1.645.86 1.578 1.557 3.047 3.206 4.09 5.181.233.441.537.665.986.858 3.75 1.613 6.547 4.159 7.584 8.236.374 1.473 1.303 1.948 2.604 2.459 2.224.873 4.24.85 6.47-.01 1.306-.503 2.124-1.085 2.527-2.415.634-2.093 1.553-4.04 3.25-5.532 1.328-1.17 2.8-2.115 4.428-2.773.523-.212.834-.48 1.055-.944 1.005-2.116 2.667-3.71 4.28-5.338.38-.385.815-.768 1.494-.23.127-2.637.814-5.01 2.148-7.173.367-.594.265-1.228.172-1.825-.281-1.807-.007-3.57.293-5.336.106-.627.24-1.24 1.136-1.408-1.139-1.718-2.29-3.457-2.399-5.461-.135-2.466-1.144-4.36-2.772-6.097-.861-.918-1.273-2.158-1.653-3.342-.252-.789-.685-1.131-1.437-1.344-2.778-.784-4.947-2.522-6.908-4.558-.136-.14-.213-.338-.368-.592 1.076-.976 2.484-.97 3.79-1.508-2.319-.55-4.434-1.331-6.175-2.878-1.705-1.515-3.111-3.295-4.687-4.992 4.677-2.521 11.316-.158 14.825 5.149-.177-1.117-.54-2.158-.27-3.242 4.824.592 10.57 4.774 10.725 12.083.656-2.258 1.237-4.36 2.18-6.694 2.459 2.421 3.802 5.157 4.364 8.255.578 3.186-.29 6.106-2.084 8.796 1.53-1.746 2.828-3.672 4.64-5.47.964 1.868 1.337 3.679 1.475 5.526.353 4.695-1.565 8.323-5.35 11.026-1.101.786-1.103.783-1.47 1.763 2.2-2.355 5.079-3.64 8.087-5.356.386 3.812-.456 7.003-2.532 9.902-2.15 3.002-5.585 3.846-8.781 5.128 2.678-1.224 5.537-1.441 8.358-1.834.95-.132 1.292.222.953 1.114-2.194 5.775-6.528 9.083-12.994 8.563-.607-.05-1.214-.237-1.8.19 2.097-.011 4.188-.032 6.23.517.6.162 1.23.218 1.838.353 1.097.244 1.28.649.596 1.54-2.524 3.282-7.783 6.27-12.727 4.442a.87.87 0 0 0-.497-.038c1.44.534 2.713 1.357 3.996 2.161 1.108.695 1.153 1.064.03 1.756-3.89 2.401-7.925 2.886-12.101.72-.26-.134-.537-.253-.757-.438-1.925-1.616-3.932-1.458-6.061-.225.41.615 1.144.855 1.695 1.305 1.002.818 2.02 1.615 2.817 2.649.29.376.859.734.31 1.255-.61.578-1.025.103-1.431-.374-1.37-1.608-3.014-2.86-4.904-3.81-.582-.293-1.06-.316-1.633.01-1.82 1.034-3.566 2.155-4.91 3.8-.357.436-.748.901-1.332.361-.543-.502-.08-.896.244-1.27 1.34-1.546 2.913-2.825 4.856-4.01-1.183-.372-2.13-.674-3.08-.968-.76-.236-1.375.111-1.984.501-2.092 1.338-4.28 2.406-6.828 2.541-2.778.148-5.244-.744-7.553-2.182-.76-.475-.834-1.006.009-1.497 1.203-.7 2.41-1.396 3.8-2.2-5.036 1.365-8.902-.413-12.238-3.816a7 7 0 0 1-.569-.663c-.555-.727-.595-1.196.498-1.459 2.716-.652 5.429-1.208 8.443-.756-.61-.688-1.207-.524-1.75-.46-6.11.716-11.203-2.495-13.217-8.349-.386-1.123-.19-1.375.951-1.231 2.641.333 5.308.548 7.922 1.864-.76-.683-.758-.69-2.137-1.085C2.552 45.053.056 39.315.205 33.76c.005-.19.107-.38.212-.73 1.784.952 3.487 1.86 5.32 2.86.93.77 1.73 1.45 2.53 2.13-.593-1.007-1.44-1.712-2.494-2.173m8.345-21.895c.853-1.38 1.677-2.779 2.572-4.13.335-.507.705-1.468 1.47-.91.759.554-.064 1.173-.413 1.674a33 33 0 0 0-2.894 5.059c4.095-2.425 6.97-7.46 6.271-10.682-4.358 1.206-8.134 6.126-7.327 9.577.085-.16.164-.307.321-.588M64 13.59c-.574-4.237-3.82-7.987-7.413-8.564-.201 3.574 2.598 9.362 6.053 10.168-.235-.471-.427-.934-.685-1.358-.712-1.172-1.462-2.32-2.174-3.492-.26-.43-.86-.95-.236-1.399.667-.481 1.035.232 1.361.678.563.771 1.07 1.584 1.605 2.376.504.747.764 1.656 1.496 2.38 0-.29 0-.456-.007-.789m8.24 11.52c-2.268 2.835-3.313 6.354-2.565 8.986.651-1.638 1.21-3.158 1.864-4.635.265-.599.188-1.864 1.199-1.492.925.341.229 1.328.006 1.972-.524 1.52-1.148 3.006-1.814 4.718 3.734-2.974 4.746-7.917 3.111-11.872zm-3.8 17.208-.6 1.716c1.425-1.177 2.622-2.497 3.838-3.798.345-.37.686-1.085 1.289-.605.659.524-.002 1.03-.295 1.494-.11.174-.271.316-.407.474-1.075 1.257-2.178 2.49-3.612 3.767 4.795-1.292 7.592-6.332 7.255-9.998-3.096 1.635-5.963 3.406-7.468 6.95m-62.547-.22c-.295-.35-.618-.682-.876-1.058-.264-.384-.834-.812-.334-1.29.574-.547.98.058 1.325.443 1.189 1.328 2.345 2.685 3.775 3.819-.448-3.41-4.306-7.433-8.04-8.393-.077 3.538 2.647 8.674 6.556 9.28-.565-1.108-1.596-1.746-2.406-2.8m63.522-23.844c.006 1.791.025 3.582-.192 5.545 2.73-3.853 1.599-9.455-.907-12.368-1.846 3.913-2.384 8.725-.522 11.635.36-1.67.218-3.345.314-5.004.03-.506-.1-1.24.703-1.213.706.023.56.692.604 1.406M13.63 51.622c-2.51-2.767-5.754-3.684-9.392-3.862.875 3.206 5.353 7.394 9.404 6.367-.308-.164-.558-.3-.811-.431-1.369-.706-2.745-1.397-4.103-2.124-.367-.197-.743-.512-.495-1.001.254-.5.706-.332 1.092-.163.342.15.66.356.992.527 1.398.717 2.772 1.492 4.506 2.035-.474-.537-.776-.879-1.193-1.348m56.43.84c1.598-1.224 2.754-2.764 3.572-4.7-4.368.12-8.722 1.881-10.445 5.19.29-.124.514-.21.729-.316q2.186-1.07 4.37-2.146c.377-.185.8-.436 1.109.034.367.558-.126.838-.497 1.081-.521.34-1.069.646-1.624.93-1.077.552-2.168 1.08-3.492 1.735 2.48.235 4.412-.374 6.278-1.809M6.569 33.957c-.736-1.63-1.397-3.288-1.89-5.01-.122-.421-.19-.872.318-1.06.534-.196.727.249.895.635.132.304.22.626.342.935.556 1.414 1.023 2.869 1.879 4.37.604-4.632-1.68-7.844-4.407-10.953-1.52 3.536-.56 9.454 3.1 11.552a7 7 0 0 0-.237-.47m2.376-17.165c.815.097.635.735.666 1.244.1 1.68.19 3.361.29 5.154 1.895-2.987 1.199-8.902-.535-11.727-2.802 3.364-3.27 8.937-1.134 11.715 0-1.51-.006-3.195.004-4.88.003-.532-.06-1.102.71-1.506M51.985 4.27c-2.632-2.294-5.683-3.012-9.199-2.567 2.56 3.673 5.784 5.85 10.282 6.064-1.61-1.398-3.411-2.258-5.196-3.146-.378-.188-.824-.406-.649-.915.193-.564.68-.352 1.063-.219.508.178 1.021.367 1.493.624 1.166.634 2.309 1.31 3.46 1.97l.127-.16c-.418-.51-.836-1.02-1.38-1.651M28.951 6.86c2.61-.903 4.156-3.031 5.967-4.996-3.904-1.106-8.74.943-10.65 4.485.648-.415 1.19-.787 1.756-1.119 1.148-.673 2.243-1.45 3.55-1.814.342-.095.67-.137.862.248.203.406-.077.63-.363.81-.317.197-.662.35-.996.52-1.458.743-2.877 1.547-4.382 2.754 1.614-.066 2.84-.46 4.256-.888m-8.829 54.875c.248-.152.67-.029.763-.462-.477-.235-.968-.28-1.465-.347a85 85 0 0 1-3.816-.605c-.395-.071-.887-.192-.828-.75.06-.568.547-.545.963-.523.415.021.826.095 1.238.146l4.117.504c-1.68-2.324-7.49-2.818-10.925-1.455 2.691 2.918 5.902 4.085 9.953 3.492m42.695-1.695c-1.92.871-4.07.641-6.129 1.215 3.54 1.73 8.936-.267 10.602-2.996-2.784-1.552-9.865-.664-10.545 1.477 1.703-.23 3.387-.474 5.075-.674.588-.07 1.354-.249.997.978m.746-39.84c.633.363 1.206.81 1.74 1.313-1.568-3.216-5.069-5.223-7.7-4.432 1.527 4.388 5.157 6.496 9.031 8.4-.365-.888-.954-1.58-1.598-2.227-1-1.006-2.02-1.983-3.26-2.709-.369-.215-.901-.532-.62-1.065.29-.547.795-.273 1.2-.047.363.202.707.44 1.207.767m-51.271 4.694c2.06-1.185 4.148-2.325 5.737-4.163.974-1.127 1.692-2.377 2.217-3.84-3.697-.115-6.609 1.682-7.915 4.92.766-.924 1.554-1.473 2.355-1.986.517-.331 1.23-1.083 1.73-.4.552.752-.477 1.043-.929 1.455-.183.167-.425.267-.616.426-1.389 1.153-2.736 2.344-3.786 4.253.564-.307.814-.443 1.207-.665m52.105.987c-.844-.377-1.646-.922-2.724-.74.524 4.22 2.987 7.045 6.133 9.486.273-.394.136-.661.026-.93-.687-1.675-1.688-3.149-2.864-4.516-.308-.358-.881-.792-.361-1.256.481-.429.915.115 1.255.458.599.602 1.16 1.24 1.892 2.031-.4-2.168-1.456-3.558-3.357-4.533M12.818 39.984c-.615 1.848-.997 3.713-.514 5.815 1.721-3.894 3.584-7.588 2.217-11.905-2.866 1.673-4.52 5.12-3.604 7.401.437-1.063.644-2.225 1.24-3.236.173-.296.405-.566.8-.41.378.151.432.496.343.838-.114.44-.282.868-.482 1.497m54.224.906c.117-3.034-1.544-6-3.88-6.825-1.178 4.257.507 7.954 2.27 11.856.39-2.54.045-4.788-.773-6.993-.161-.434-.585-1.006.147-1.26.668-.23.816.45.998.873.391.91.711 1.85 1.06 2.778.05-.05.108-.096.148-.154.02-.03.013-.08.03-.275M53.41 57.052l-.727 2.735c.439.025.59-.2.75-.376 1.309-1.441 2.19-3.122 2.773-4.97.144-.457.224-1.16.873-.99.735.193.433.898.305 1.382-.236.902-.56 1.78-.883 2.774 2.234-2.06 2.981-6.382 1.47-8.034-2.038 1.569-3.595 4.085-4.561 7.479M15.83 26.508c.107-.478.295-.958-.009-1.428-2.844.249-5.33 2.486-5.67 5.205.436-.512.755-.993 1.177-1.357.536-.463.989-1.714 1.797-.95.63.597-.446 1.24-.859 1.8-1.053 1.427-2.113 2.843-2.474 4.959 2.819-2.325 5.15-4.62 6.039-8.229m6.294 25.644c-.765-.944-1.435-1.986-2.533-2.681-1.15 3.058-.425 6.598 1.515 7.757-.335-.994-.796-1.937-.885-2.987-.03-.35.018-.706.416-.807s.612.174.736.514c.215.586.396 1.185.635 1.76.646 1.557 1.42 3.03 2.976 4.32-.5-2.95-1.235-5.48-2.86-7.876m5.193 11.478c-3.048-.543-5.648.477-8.2 2.175 3.082 2.168 7.74 2.013 10.828-.26-1.83.035-3.584.28-5.333.613-.441.084-1.123.323-1.291-.338-.198-.773.557-.82 1.046-.927 1.347-.295 2.707-.53 4.364-.845-.61-.195-.919-.294-1.414-.418M49.7 65.677c-.481.026-.978-.181-1.456.082 1.67 2.045 8.135 2.188 10.126.04-2.033-1.92-7.095-3.176-9.103-1.674 1.472.273 2.902.518 4.321.814.39.081.885.243.794.79-.094.565-.607.506-1.008.456-1.156-.144-2.306-.329-3.674-.508m-28.165-53.95c.616-.074 1.231-.169 1.85-.21.34-.023.705.057.723.498.017.418-.317.548-.656.619q-.793.164-1.591.3c-1.634.282-2.951 1.066-3.96 2.408 3.766-.622 7.466-1.292 10.216-4.447-2.198-.932-4.296-.987-6.404-.203-.417.155-1.157.383-.178 1.034m33.178-.23c.672-.108 1.327.408 2.059.144-1.02-1.672-4.784-2.01-7.02-.664 2.637 3.083 6.28 3.776 10.018 4.382-1.259-1.974-3.306-2.274-5.293-2.695-.376-.08-.797-.167-.8-.632-.001-.517.455-.5 1.036-.535M13.73 46.657c-.192.948-.105 1.848.433 2.832.102-.91.18-1.653.269-2.395.063-.526.018-1.253.764-1.192.74.06.432.764.428 1.218-.015 1.65-.113 3.309.804 5.09 1.02-3.478 1.012-6.614-.612-9.822-1.232 1.22-1.784 2.569-2.086 4.269m47.102-1.412c-.4 2.285-.352 4.531.488 7.004.888-1.856.758-3.52.696-5.181-.017-.463-.17-1.148.559-1.172.645-.021.706.627.757 1.111.082.79.094 1.588.15 2.643 1.08-2.334.298-5.54-1.574-7.096-.618.72-.828 1.602-1.076 2.691M28.428 59.341c.814 1.434 1.713 2.794 3.219 3.77-.587-3.259-3.28-6.495-5.565-6.79-.431 1.824.575 4.398 2.4 5.66-.667-.802-.998-1.468-1.212-2.186-.096-.325-.16-.676.213-.883.36-.201.633-.03.945.43m17.736 2.885c.01.275-.287.516-.07.874.182-.112.371-.197.52-.327 1.047-.91 1.842-2.016 2.531-3.21.22-.38.468-.923 1.03-.644.63.312.316.868.114 1.304-.255.55-.583 1.068-1.044 1.893 1.978-1.652 2.864-4.187 2.201-5.895-2.657 1.148-4.22 3.243-5.282 6.005"/><path fill="#0f450f" d="M20.554 30.839c-.002-1.793.022-3.462-.018-5.13-.022-.93.326-1.425 1.252-1.703 3.51-1.053 7.014-2.125 10.35-3.685 2.01-.94 3.937-2.004 5.766-3.248.51-.346.949-.61 1.574-.179 4.938 3.412 10.527 5.354 16.208 7.052 1.094.327 1.453.862 1.444 1.945-.035 4.545.06 9.092-.03 13.635-.098 5.046-2.508 8.995-6.265 12.17-3.453 2.917-7.44 5.052-11.256 7.433-.53.33-.99.291-1.504-.04-3.606-2.322-7.403-4.343-10.772-7.04-4.409-3.526-6.828-7.986-6.762-13.705.028-2.46.01-4.92.013-7.506m35.02 7.13c-.004-3.585-.065-7.17.016-10.753.03-1.35-.392-1.993-1.723-2.377-4.695-1.356-9.269-3.069-13.413-5.698-1.192-.756-1.944-.8-3.158-.036-4.186 2.632-8.753 4.453-13.522 5.742-1.234.334-1.754.899-1.725 2.256.09 4.082.07 8.169.018 12.253-.048 3.823 1.517 6.951 4.056 9.643 3.455 3.663 7.94 5.892 12.128 8.528.467.293.853.159 1.271-.097 2.879-1.76 5.828-3.41 8.563-5.397 4.693-3.411 7.92-7.624 7.49-14.064"/><path fill="#0f450f" d="M37.069 55.107c-3.044-1.902-6.109-3.612-8.755-5.94-3.212-2.827-4.93-6.309-4.85-10.657.067-3.5.05-7.004-.015-10.505-.02-1.109.362-1.657 1.421-1.961 4.663-1.34 9.157-3.095 13.278-5.702.492-.312.9-.27 1.381.029 4.105 2.545 8.557 4.297 13.17 5.646 1.104.322 1.511.86 1.486 2.036-.078 3.584-.112 7.172-.008 10.755.125 4.31-1.74 7.643-4.844 10.388-2.982 2.638-6.503 4.496-9.852 6.601-1.034.65-1.586-.324-2.412-.69m15.68-22.892c0-1.083-.059-2.171.018-3.249.075-1.042-.283-1.543-1.324-1.864-4.067-1.256-8.017-2.819-11.69-5.002-.612-.364-1.068-.377-1.701-.012-3.805 2.19-7.814 3.919-12.047 5.097-.813.227-1.145.618-1.133 1.49.044 3.207.075 6.418.004 9.625-.094 4.297 1.723 7.625 4.968 10.284 2.62 2.148 5.574 3.795 8.422 5.602.402.255.719.282 1.134.011 2.719-1.775 5.6-3.304 8.14-5.352 3.308-2.67 5.44-5.914 5.23-10.38-.093-1.996-.019-4-.02-6.25"/><path fill="#0f450f" d="M40.795 36.833c1.61-1.697 3.173-3.315 4.702-4.966.53-.572.965-.682 1.546-.07.658.696 1.38 1.331 2.078 1.987.517.485.568.919.037 1.478a1925 1925 0 0 0-11.13 11.833c-.62.665-1.068.71-1.73.026a284 284 0 0 0-5.923-5.922c-.598-.583-.702-1.04-.038-1.644a14 14 0 0 0 1.614-1.74c.766-.98 1.446-.893 2.222-.01.632.719 1.373 1.341 2.008 2.057.596.672 1.075.77 1.717.03.9-1.037 1.888-1.999 2.897-3.06m-2.522 7.856c2.814-2.955 5.626-5.912 8.444-8.864 1.302-1.363 1.254-1.637-.701-2.662-.293.364-.607.809-.975 1.202-2.333 2.492-4.704 4.95-7.006 7.472-.718.786-1.208.774-1.892-.007-.711-.812-1.585-1.482-2.295-2.295-.619-.708-1.077-.606-1.589.056-.199.257-.517.434-.52.534l5.356 5.59c.488-.177.729-.59 1.178-1.026"/></svg>