<svg xmlns="http://www.w3.org/2000/svg" width="80" height="69" fill="none" viewBox="0 0 80 69"><path fill="#00480b" d="m20.109 38.12 51.324-.002c1.045 0 1.204.163 1.153 1.216-.407 8.38-3.581 15.527-9.69 21.283-4.368 4.114-9.57 6.648-15.492 7.713-4.994.898-9.987.909-14.953-.054-5.805-1.126-10.917-3.682-15.231-7.776q-6.402-6.076-8.653-14.598a29.2 29.2 0 0 1-.939-6.58c-.034-1.12.05-1.193 1.155-1.195 3.751-.006 7.502-.005 11.326-.007M62.3 59.65c-.522-.075-.672-.459-.778-.902-.104-.439-1.994-1.416-2.389-1.246-.083.036-.151.116-.214.186-.44.494-.966.775-1.646.687-.209-.027-.4.004-.473.22-.27.794-1.035 1.443-.562 2.454.225.48-.08.943-.613 1.121-.538.181-.958-.068-1.199-.526-.259-.494-.115-1.084.373-1.216.909-.246 1.042-1.015 1.434-1.64.317-.506.078-.794-.218-1.178-.324-.423-.617-.202-.942-.093l-.746.254c-.665.229-1.355.355-1.662 1.174-.18.48-.882.537-1.31.215-.43-.323-.629-.755-.32-1.247.298-.473.775-.715 1.286-.392.453.285.844.225 1.284.055.468-.18.943-.341 1.416-.509.287-.102.598-.137.58-.587-.016-.4-.184-.602-.537-.74a54 54 0 0 1-2.315-.964c-.33-.148-.586-.174-.925.032-.526.32-1.123.068-1.35-.488-.194-.474.062-1.055.545-1.241.518-.2 1.057.05 1.238.633.086.274.186.465.459.579.793.33 1.607.626 2.363 1.03.777.414 1.07-.275 1.515-.576.387-.262.1-.652.044-.989-.058-.35-.396-.38-.617-.544-.37-.274-.492-.647-.366-1.076.128-.432.443-.67.902-.689.471-.02.761.239.932.646s-.029.73-.249 1.06c-.285.427-.102 1.157.311 1.357 1.436.693 1.435.692 2.697-.379.182-.154.364-.311.562-.442.333-.22.537-.462.566-.914.052-.826.763-1.157 1.502-.742.195.11.369.257.588.133.728-.411 1.791-.342 2.054-1.435.028-.118.18-.282.289-.294.816-.093.867-.781 1.075-1.343.239-.65.444-1.313.698-1.957.213-.537.294-.985-.123-1.518-.451-.577-.137-1.41.532-1.75a1.273 1.273 0 0 1 1.707.583c.321.648.105 1.485-.585 1.67-.792.214-1.032.74-1.225 1.402-.147.504-.334.996-.505 1.494-.221.647-.556 1.279-.104 1.977.084.13.064.404-.017.553-.32.59.002.975.39 1.448.666-.896 1.072-1.86 1.486-2.816 1.427-3.296 2.28-6.726 2.423-10.327.023-.589-.154-.828-.761-.788-.714.046-1.435.075-2.147.026-.614-.041-.9.123-1.003.776-.268 1.705-.706 3.368-1.605 4.868-2.904 4.844-8.353 6.787-13.71 4.904-.642-.226-1.266-.53-2.017-.611-.233 1.239-.42 2.44-.79 3.6-1.098 3.426-3.261 5.888-6.591 7.297-2.68 1.134-5.387 1.088-8.117.19-.802-.264-.94-.187-1.02.627-.207 2.104-.602 4.156-1.509 6.085-.037.08-.03.18-.046.29.118.069.211.148.32.182.227.072.458.138.693.173 3.752.561 7.52.606 11.292.296 1.045-.086 2.081-.283 3.122-.427.822-.114.633-.748.657-1.273.026-.564-.385-.592-.773-.605-.645-.02-1.29-.004-1.936-.014-.196-.003-.446.073-.518-.251.048-.045.09-.122.145-.132 1.114-.193 2.236-.051 3.35-.026.476.01.503.649.747.945-.113.282-.416.019-.493.257-.061.706.32.77.856.614a44 44 0 0 0 3.334-1.094c.617-.234.947-.511.89-1.233-.052-.635.168-.718.773-.398.067.243-.427.43-.111.676.234.182.52.019.742-.085a16 16 0 0 0 1.578-.845c1.974-1.217 3.907-2.49 5.57-4.266 1.745-1.449 3.043-3.277 4.324-5.115.648-.93.604-1.048-.009-1.962-.245-.365-.625-.301-.933-.45-.675-.327-2.294.312-2.597 1.012-.204.471-.564.813-1.043.675-.596-.171-.955.099-1.347.417-.37.3-.75.59-1.114.897-.791.666-.621 1.797.324 2.197q.297.124.591.255c.546.242 1.035.457 1.659.035.513-.348 1.128-.002 1.289.634-.484-.201-.964-.535-1.4-.052-.477.528-.013.972.162 1.438.008.022.012.046-.089.058M14.015 49.347c.167 0 .34.026.501-.005 1.728-.328 2.942.264 3.61 1.935.239.599.582.855 1.134.2.263-.312.71-.276 1.046-.008.33.263.453.621.25 1.022-.19.378-.587.695-.917.47-.585-.396-1.377-.495-1.76-1.198-.262-.482-.598-.924-.854-1.408-.22-.416-.523-.555-.983-.549-1.409.02-2.819-.002-4.228.005-.248 0-.531-.09-.726.153-.044.213.04.387.119.56 1.178 2.58 2.722 4.926 4.536 7.102.376.45.637.423 1.014-.005 1.662-1.89 3.706-3.112 6.209-3.567 2.316-.42 4.51.03 6.67.802 1.356.486 1.34.486 1.477-.928.34-3.534 1.679-6.573 4.632-8.692 2.653-1.904 5.601-2.587 8.823-1.761 1.028.263 2.037.59 3.107 1a29 29 0 0 1 1.277-5.242c-1.077-.233-2.055-.078-3.027-.088-3.343-.034-6.687-.05-10.03-.083-.476-.005-.83.027-.873.647-.027.375-.306.617-.727.524-.078-.179.007-.266.083-.359.144-.177.407-.337.21-.605-.155-.21-.419-.209-.66-.176-.282.038-.543.172-.842.144-1.136-.105-2.272-.113-3.414-.11-5.661.021-11.322-.02-16.983-.036-1.144-.003-2.289.005-3.433.009-.484.002-.777.172-.693.73.148.99.187 1.991.358 2.98.102.584.362.748.905.742 1.648-.02 3.296-.014 4.944-.002.425.003.77-.05 1.064-.428.209-.267.556-.512.945-.36.346.135.735.287.776.751.035.389.038.77-.39.988-.417.212-.806.274-1.186-.08-.296-.276-.592-.498-1.06-.49-1.695.031-3.391.005-5.087.013-.284.001-.68-.108-.623.426.043.401.072.704.657.677 1.335-.062 2.675-.03 4.012-.02.258.003.583-.109.75.279-.25.27-.575.194-.869.196-1.218.007-2.436.002-3.654-.004-.366-.001-.638.074-.503.53.298 1.007.575 2.02.986 2.99.128.303.344.336.633.331.883-.015 1.767-.004 2.794-.002m26.881 5.947c.432.63.86 1.262 1.295 1.89.507.728 1.153.78 1.771.127.23-.241.413-.525.63-.779.254-.298.243-.55.007-.885-1.938-2.75-3.846-5.52-5.782-8.27-1.07-1.518-1.38-1.488-2.418.065-.305.455-.352.797-.017 1.276 1.507 2.149 2.974 4.325 4.514 6.576m12.477-7.87c-1.248-.478-2.502-.94-3.741-1.439-2.19-.88-4.34-1.868-6.722-2.155-1.635-.198-3.008.368-4.303 1.296.173.258.355.192.508.178 2.236-.204 4.367.266 6.456 1.002 2.453.864 4.776 2.067 7.274 2.813 1.54.46 3.1.826 4.718.46.892-.203 1.692-.609 2.36-1.282-2.246.276-4.351-.227-6.55-.873M35.556 57.782c-2.12-.8-4.23-1.633-6.365-2.392-1.462-.519-2.96-.947-4.543-.857-1.35.078-2.485.657-3.491 1.557 1.058-.056 2.093-.098 3.132.015 2.84.307 5.433 1.416 8.062 2.42 2.23.852 4.45 1.756 6.923 1.54 1.22-.107 2.257-.585 3.164-1.43-2.35.325-4.574-.145-6.882-.853m22.248-16.97c-.294-.435-.598-.863-.88-1.305-.171-.27-.407-.387-.714-.39-.62-.01-1.239-.034-1.857-.018-.267.008-.584-.034-.77.29.033.082.055.177.107.253l5.118 7.587c.16.236.357.394.65.35.517-.076 1.05-.112 1.543-.27.668-.212.764-.62.376-1.194-1.173-1.739-2.342-3.48-3.573-5.304M29.526 62.635q-1.505-2.263-3.006-4.528c-.805-1.215-2.253-1.728-3.792-1.266l6.428 9.595c1.074-1.238 1.193-2.623.37-3.8m-3.86.989c-1.395-2.08-2.786-4.163-4.188-6.238-.33-.489-1.036-.567-1.57-.208-.604.407-.736.927-.363 1.506a569 569 0 0 0 2.958 4.563c.113.171.292.316.47.425a25 25 0 0 0 2.911 1.532c.223.1.467.278.75.003-.182-.567-.587-1.008-.968-1.583m16.488-17.529c-.804-.253-1.61-.192-2.6-.135l5.995 8.665c.52-.719.638-1.434.865-2.103.066-.193-.025-.376-.137-.538a412 412 0 0 0-4.123-5.889m-5.24 5.855c-.546-.672-.916-1.484-1.578-2.142-.422.619-.56 1.245-.702 1.867-.09.393.003.737.242 1.077.977 1.386 2.017 2.737 2.864 4.2.628 1.083 1.566 1.007 2.52 1.045.423.017.537-.263.335-.632a9 9 0 0 0-.485-.793c-1.042-1.514-2.09-3.025-3.196-4.622m18.627-7.02-3.427-5.124c-.378.365-.413.758-.554 1.103-.344.844-.214 1.564.363 2.302.763.976 1.414 2.04 2.11 3.067.63.93 2.011 1.452 3.23 1.168zm8.036-1.375c.202-.448.326-.87-.013-1.34-.613-.848-1.18-1.73-1.77-2.596-.146-.216-.286-.507-.57-.495-.884.036-1.78-.06-2.825.124l4.14 6.174c.492-.589.735-1.182 1.038-1.867M33.537 54.81c.159-2.695.826-5.256 2.097-7.678-1.22.424-2.042 1.226-2.603 2.277-.951 1.785-1.269 3.735-1.38 5.73-.014.243.059.429.28.526.428.19.84.434 1.34.474.231-.394.189-.81.266-1.329m14.326-6.284c-.389 2.931-1.039 5.783-2.672 8.323.275.114.392.02.515-.047 2.154-1.163 4.261-5.418 3.89-7.857-.096-.632-.707-.546-1.092-.769-.273-.158-.508-.096-.64.35M30.883 66.95c.401.137.636-.066.802-.399 1.032-2.073 1.407-4.294 1.454-6.584.008-.392-.766-.92-1.296-.914-.552.005-.376.47-.406.75-.229 2.087-.38 4.19-1.195 6.158-.261.63-.062.883.641.99M62.99 46.59c2.41-1.312 4.318-4.88 3.92-7.403-.313-.033-.64-.087-.969-.098-.439-.016-.709.164-.768.65-.291 2.38-.991 4.615-2.37 6.606-.089.128-.24.313.187.245m-12.867-1.657c.26-1.926.64-3.828 1.305-5.738-.474-.048-.826-.087-1.18-.117-.257-.022-.462.046-.578.312-.687 1.564-1.058 3.21-1.273 4.897-.065.511.303.683.678.766.327.073.698.578 1.048-.12m6.814 10.177c-1.206.529-1.117 2.06-.184 2.596a1.44 1.44 0 0 0 1.721-.217 1.44 1.44 0 0 0 .275-1.713c-.312-.586-.932-.84-1.812-.666m-30.619 7.869c-1.262-1.882-2.522-3.767-3.791-5.644-.156-.23-.261-.587-.658-.477-.1.198.006.314.082.427q2.755 4.141 5.52 8.276c.122.182.233.447.653.238-.48-.986-1.218-1.798-1.806-2.82m1.807-4.885c.767 1.088 1.417 2.262 2.363 3.399.249-.924.233-1.708.308-2.478a.47.47 0 0 0-.318-.507 94 94 0 0 0-2.144-.758c-.24-.082-.386-.024-.21.344m14.657-6.567-.971-1.413c-.325-.47-.655-.937-.978-1.408s-.612-.97-.97-1.412c-.33-.406-.481-1-1.015-1.213l-.186.152 6.37 9.218.314-.211c-.75-1.264-1.648-2.433-2.564-3.713m3.47-2.035c.178.233.287.532.603.676.3-.635.295-1.283.36-1.917.02-.187.107-.44-.063-.542-.78-.461-1.594-.85-2.745-.95.684 1.01 1.239 1.828 1.846 2.733m-7.037 4.9c.4.592.81 1.177 1.197 1.777.641.992.99 1.41 1.55 1.681-2.01-3.13-4.042-6.03-6.074-8.932l-.31.209zM53.093 39.66c-.14-.18-.223-.43-.52-.422-.123.188.004.33.09.46q2.517 3.772 5.046 7.537c.123.182.259.407.643.223zm8.756 5.566-1.397-2.08c-.467-.693-.945-1.378-1.402-2.077-1.101-1.683-1.097-1.686-1.707-1.797l4.687 6.982c.287-.512-.028-.696-.181-1.028M27.92 59.377c.774 1.148 1.478 2.346 2.425 3.523.022-.853-2.917-5.292-3.605-5.458.268.737.785 1.244 1.18 1.935m7.054-4.046c-.21-.226-.281-.597-.734-.7-.01.673-.476 1.352-.004 1.874.363.402.986.612 1.647.485-.038-.707-.593-1.061-.909-1.659m9.072-8.208c-.216-.224-.29-.6-.735-.604.905 1.666 1.995 3.2 3.213 4.842.049-.269.093-.353.068-.398-.745-1.308-1.65-2.511-2.546-3.84m23.83-1.627c.593.465 1.1.451 1.386-.053.195-.343.19-.692-.094-.99-.28-.293-.64-.355-.98-.16-.43.246-.538.644-.311 1.203m-47.444 15.34L18.84 58.53c-.073.913 1.826 3.756 2.564 4.016-.195-.632-.63-1.087-.972-1.709m15.423-5.815c-.413-.52-.71-1.138-1.32-1.497.687 1.417 1.632 2.653 2.632 3.852-.25-.86-.804-1.534-1.312-2.355m15.368-11.89c-.28.228-.11.448.025.651a127 127 0 0 0 1.6 2.365c.12.171.196.463.654.325-.675-1.175-1.47-2.22-2.279-3.34m11.035-3.849c.399 1.018 1.136 1.81 1.71 2.745.218-.241.21-.422.098-.596q-.654-1.02-1.322-2.031c-.095-.145-.233-.24-.486-.118m2.088-.112c-.367-.138-.723-.159-1.127.118l1.137 1.693c.027-.726.324-1.215-.01-1.81m-13.602 6.106c.034.94.85.653 1.356.881-.259-.668-.6-1.252-1.119-1.754-.22.288-.148.544-.237.873M17.269 59.215c.15.158.318.242.459.009.269-.445.601-.865.716-1.456-.49.085-.787.37-1.123.572-.362.218-.412.49-.052.875m39.806-6.713c.023-.381-.156-.577-.539-.57-.23.004-.416.097-.489.33-.083.268.045.468.263.593.329.19.583.09.765-.353m5.73.24c-.069-.324-.253-.517-.597-.437-.254.058-.387.27-.412.52-.025.246.123.416.35.461.348.07.606-.046.659-.544m3.095-1.743c-.165.331-.028.557.273.688.216.095.431.029.566-.17.15-.217.15-.464-.034-.655-.257-.27-.513-.146-.805.137m-14.464 7.215c-.07.336.056.572.389.648.238.054.42-.073.497-.306.071-.213.074-.44-.118-.591-.29-.23-.53-.11-.768.25M36.528 45.462c-.248.158-.528.283-.673.627 1.023-.03 1.438-.864 2.056-1.399-.432.24-.864.479-1.383.772m18.585 16.241c.332.113.563.008.653-.333a.49.49 0 0 0-.21-.561c-.18-.125-.367-.117-.52.03-.27.259-.276.535.077.864m-3.698-7.244c.324-.068.512-.254.433-.596-.053-.23-.243-.337-.478-.34-.24-.003-.415.123-.479.344-.102.354.104.52.524.592m-34.36-10.68c.006-.306-.13-.514-.445-.535-.24-.017-.4.14-.464.367-.068.244.046.428.257.528.294.14.5.009.652-.36m45.237 4.111.591-.47c-.884.206-1.582.472-2.052 1.269.55-.2.967-.47 1.46-.799m-42.904 8.258c-.324.24-.648.48-1.125.831.957-.177 1.56-.529 1.998-1.21-.358-.036-.552.194-.873.38m.75-3.832c.116-.274.01-.466-.245-.568-.206-.083-.368.026-.477.2-.104.165-.046.323.067.455.199.234.404.198.654-.087m-1.601 8.122c.206.142.379.343.714.404-.209-.5-.438-.914-.854-1.238-.365.326-.17.55.14.834m25.028-1.497c.428-.24.913-.403 1.288-.95-.666.194-1.244.267-1.288.95M27.086 25.884c-.121.456.084 1.1-.405 1.184-.552.095-.607-.58-.776-.962-1.692-3.817-4.115-7.047-7.576-9.43a21.2 21.2 0 0 0-5.856-2.806c-.13-.04-.273-.043-.482.055q1.17.895 2.338 1.794c4.497 3.477 7.647 7.897 9.339 13.339.257.827.11 1.012-.742.861-8.801-1.562-15.078-6.456-19.03-14.422C1.945 11.569.727 7.417.058 3.096A4.5 4.5 0 0 1 0 2.454c-.006-.634.216-.801.783-.54 3.89 1.794 8.06 2.647 12.187 3.657 3.33.815 6.578 1.816 9.26 4.13 2.163 1.864 3.461 4.221 4.237 6.917q.059.206.124.411c.006.02.033.032.086.078-.23-1.699-.217-3.359.146-5.007.683-3.105 2.723-5.128 5.35-6.662 2.352-1.374 4.892-2.389 7.243-3.769A24 24 0 0 0 41.504.283c.615-.456.846-.378.895.357.399 5.999-.477 11.7-4.235 16.619-1.885 2.467-4.472 4.062-7.328 5.222-.455.185-.712-.065-.645-.662.175-1.546.48-3.063 1.021-4.53.82-2.221 2.078-4.185 3.525-6.039.187-.239.366-.484.504-.757-4.069 2.42-6.145 6.197-7.177 10.724-.785-.79-.768-1.81-1.164-2.68.321 2.423.37 4.85.186 7.347m-12.092-5.116c1.15.032 2.244.474 3.427.482-.915-1.243-1.748-2.525-3.336-2.983-1.797-.519-3.66-.661-5.484-1.017-.291-.056-.66-.028-.88-.513 1.871.29 3.661.044 5.458.256-2.51-2.343-5.456-3.958-8.421-5.572 2.53.325 4.972.949 7.588 1.613-1.01-1.609-1.965-3.022-2.46-4.674.429.428.71.946 1.061 1.411 1.484 1.964 2.732 4.164 5.248 5.087.614.226 1.138.694 1.707 1.045.194.12.365.33.725.162-.4-2.077-1.296-3.956-2.505-5.714.162-.022.24-.014.289.028.142.127.28.26.405.402a13.2 13.2 0 0 1 2.818 5.099c.342 1.177.763 2.3 1.778 3.114.403.322.693.785 1.032 1.186 1.06 1.257 1.892 2.667 2.73 4.09a26.4 26.4 0 0 0-.375-6.118c-.814-4.46-3.152-7.758-7.288-9.742-1.802-.864-3.701-1.416-5.62-1.897-3.588-.899-7.214-1.651-10.678-2.989-.341-.131-.663-.381-1.068-.309-.115.255-.022.484.017.716a40 40 0 0 0 1.53 6.102c1.381 4.111 3.304 7.922 6.174 11.22 3.127 3.594 7.085 5.828 11.598 7.16.596.175 1.215.383 1.844.284.111-.321.005-.543-.073-.765-.45-1.29-1.062-2.5-1.695-3.708-.38-.723-.917-1.177-1.64-1.51-1.915-.88-3.93-1.311-6.02-1.458-.47-.033-.967.01-1.353-.493 1.11 0 2.22 0 3.467.005m19.872-1.622c2.907-2.249 4.668-5.244 5.697-8.721.634-2.144.872-4.347.988-6.567.04-.763.007-1.53.007-2.49-2.109 1.43-4.156 2.448-6.212 3.453-1.459.713-2.908 1.442-4.212 2.429-3.587 2.714-4.213 6.525-3.168 10.806.6-1.579 1.396-2.96 2.19-4.343.167-.29.2-.63.237-.966.15-1.363.504-2.672 1.106-3.905.126-.257.18-.606.752-.742-.636 1.4-.976 2.753-1.051 4.143 2.568-1.351 3.69-3.731 4.622-6.278.062 1.211-.475 2.244-.878 3.447 1.664-.808 3.173-1.633 4.844-2.143-1.636 1.7-3.363 3.29-4.827 5.296l3.387-.893c-.19.457-.534.562-.859.694-.796.322-1.59.646-2.39.958-1.247.487-1.768 1.556-2.3 2.794 1.389-.783 2.757-1.172 4.253-1.327-.096.426-.393.431-.627.502-.92.276-1.765.713-2.63 1.12-2.02.949-2.28 2.8-2.572 4.77 1.386-.444 2.47-1.216 3.643-2.037m31.096 12.959c-1.119 1.277-2.21 2.51-3.283 3.76-.355.413-.766.58-1.314.579-4.035-.016-8.07-.009-12.106-.01-.096 0-.192.005-.287-.005-.324-.035-.752.036-.868-.343-.106-.347.285-.518.512-.707q5.616-4.671 11.24-9.333c1.763-1.463 3.519-2.935 5.3-4.376.498-.402.367-.89.334-1.375-.121-1.752.282-3.355 1.282-4.812 1.608-2.339 4.945-3.583 7.73-2.86 3.042.79 5.11 3.272 5.454 6.29.413 3.608-2.148 7.181-5.71 7.88-.968.19-1.956.157-2.92-.002-.53-.088-.848.062-1.173.445-1.375 1.62-2.77 3.223-4.192 4.869m13.057-12.646c-.053-1.455-.494-2.772-1.457-3.876-1.962-2.25-4.913-2.862-7.55-1.59-2.661 1.283-4.018 3.977-3.466 6.947.096.516-.041.846-.438 1.175-4.212 3.486-8.412 6.988-12.615 10.485l-3.238 2.69c.215.208.44.138.642.138 3.344 0 6.689-.022 10.032.002.64.005 1.063-.22 1.468-.692 2.474-2.88 4.975-5.737 7.452-8.615.335-.389.651-.55 1.174-.398 4.49 1.302 8.241-2.47 7.996-6.266M36.08 31.113c1.583-.036 2.888.797 3.32 2.073.452 1.333.008 2.772-1.102 3.576-1.436 1.04-3.501.63-4.443-.885-.934-1.502-.394-3.565 1.165-4.383.312-.164.665-.251 1.06-.38m1.04 5.119c.153-.065.319-.11.457-.197.872-.557 1.212-1.69.803-2.646-.381-.89-1.395-1.402-2.363-1.192-.973.21-1.617 1.113-1.564 2.189.068 1.356.892 1.958 2.667 1.846M24.65 33.42c-.556-1.747.19-3.386 1.794-4.033 1.448-.585 3.141.08 3.886 1.526.731 1.42.175 3.253-1.247 4.113-1.549.936-3.508.247-4.433-1.605m1.38-2.61c-.14.22-.308.427-.414.663-.378.843-.195 1.723.469 2.365.602.583 1.677.74 2.476.363.675-.32 1.182-1.28 1.107-2.097-.153-1.67-2.035-2.392-3.638-1.295m12.023-6.616c1.215.791 1.638 1.909 1.447 3.24-.172 1.19-.915 1.962-2.043 2.355-1.206.42-2.708-.053-3.45-1.077-.798-1.103-.802-2.677-.01-3.676.938-1.181 2.262-1.588 3.561-1.09.155.06.3.147.495.248m.159 3.87c.093-.193.221-.377.274-.58.213-.827.038-1.591-.587-2.164-.616-.565-1.354-.769-2.184-.408-.807.35-1.224.951-1.272 1.822-.054.987.362 1.71 1.201 2.077.86.377 1.728.147 2.568-.748m8.143.576c.85.485 1.13 1.203 1.025 2.082-.084.71-.54 1.15-1.173 1.41-.706.291-1.662.04-2.145-.54-.5-.6-.558-1.588-.132-2.28.413-.67 1.262-1.013 2.042-.82.114.027.222.081.383.148m-1.127.856c-.503.204-.687.582-.543 1.092.114.402.382.65.832.653.485.002.75-.275.871-.703.168-.592-.277-1.033-1.16-1.042m1.314-6.09c.272 1.075-.026 1.91-.801 2.35a1.83 1.83 0 0 1-2.232-.335c-.618-.645-.727-1.551-.28-2.308.769-1.3 2.496-1.175 3.313.293m-2.278 1.407c.656.337 1.18.195 1.397-.38.185-.488-.09-1.019-.605-1.192a.77.77 0 0 0-.9.26c-.322.4-.297.833.108 1.312"/><path fill="#00480b" d="M29.535 51.383c.343.212.737.28.932.74-.65-.034-1.087-.388-1.516-.676-.645-.435-1.215-.571-1.857-.014-.953.828-1.858.783-2.934.056-.814-.55-1.382-1.048-1.181-2.083.211-1.093-.28-1.753-1.271-2.146-.31-.123-.642-.277-.852-.651.48-.219.771.082 1.005.275.914.752 1.726.76 2.72.05.582-.417.904-.767.812-1.473a4.5 4.5 0 0 1-.004-.93c.035-.445-.166-.7-.552-.897-.528-.27-1.028-.592-1.544-.886-.134-.076-.242-.153-.177-.398.582.019 1.05.386 1.463.692.744.55 1.39.508 2.05-.042.926-.771 1.822-.772 2.733.019a1.9 1.9 0 0 0 .557.318c.555.214.752.612.682 1.183-.026.212.012.432-.017.644-.116.862.058 1.553.987 1.872.178.061.39.189.345.518-.459.026-.752-.294-1.082-.482-.327-.187-.588-.195-.927-.014-1.722.92-1.86 1.165-1.72 3.107.024.343.202.505.461.655.288.167.563.355.887.563M27.173 47.2c.354.139.584.58 1.08.372 1.718-.72 1.894-.977 1.862-2.86-.002-.096-.01-.192-.004-.287.02-.32-.142-.51-.39-.705-1.078-.85-2.15-1.151-3.291-.107-.187.17-.522.23-.532.529-.026.712-.095 1.443.029 2.135.093.524.758.587 1.246.923m-1.375-.256c-.115-.01-.241-.056-.344-.025-1.55.47-2.03 1.163-1.924 2.754q.017.214 0 .428c-.02.227.03.405.212.57 1.135 1.03 1.921 1.118 3.235.33.319-.192.674-.32.781-.77.334-1.401.035-2.143-1.198-2.841-.228-.13-.452-.267-.762-.446"/><path fill="#00480b" d="M16.111 45.025c.855.002 1.64.007 2.426.004.56-.003 1.099.067 1.576-.436.34-.359.85-.245 1.189.175.35.436.257.876-.131 1.201-.384.32-.841.37-1.195-.076-.271-.34-.611-.401-1.011-.398-1.12.009-2.238 0-3.357-.012-.221-.002-.492.087-.62-.243.291-.355.703-.152 1.123-.215m4.589-.095c-.268-.028-.487.032-.51.347-.012.183.1.315.269.382a.375.375 0 0 0 .452-.108c.204-.241.12-.434-.211-.621m-.592 3.603c-1.124.098-2.199.167-3.268.002.034-.363.221-.371.38-.373a97 97 0 0 1 2.58 0c.183.004.482-.032.308.37m-8.731-1.81c.701.062 1.365-.148 1.967.259-1.05.33-2.102.229-3.311.146.44-.59.9-.323 1.344-.405m3.075 1.523c.114.22.007.332-.143.34-.848.043-1.698.097-2.545-.025-.092-.013-.164-.087-.162-.303.921-.198 1.866-.115 2.85-.012m1.845-1.512c.261.081.455.176.193.389-.263.214-1.973.068-2.403-.255.757-.268 1.465-.09 2.21-.134m15.885-6.475c.608.051 1.174-.116 1.74.139-.532.409-2.05.427-2.575.06.195-.313.509-.155.835-.199m-.594 1.947c-.114-.116-.13-.243-.027-.262.78-.142 1.556-.164 2.32.16-.735.275-1.486.223-2.293.102m2.148 1.326c.108.125.108.218.009.271-.359.193-1.829.124-2.443-.192.889-.27 1.637-.175 2.434-.079m-1.492-2.038c-.323-.027-.624.107-.861-.15.508-.407 1.838-.431 2.53-.025-.546.321-1.099.1-1.67.175m-.556 1.23a63 63 0 0 1 2.05-.001c.05 0 .1.078.152.123-.382.31-1.9.447-2.279.211-.17-.106-.137-.22.077-.333m-14.156 4.385c.18-.477.754-.532 1.442-.135-.455.382-.935.223-1.442.135M52.84 62.57c.438-.38.645-.935 1.183-1.158.245.35-.043.527-.188.7-.613.73-1.254 1.435-1.876 2.157-.173.202-.382.266-.631.266-1.86.004-3.718.011-5.577.01-.205 0-.442.015-.526-.272.173-.332.494-.22.755-.221 1.477-.008 2.957-.048 4.43.025.86.043 1.47-.232 1.94-.92.133-.195.303-.366.49-.587m-8.646 4.28c.671.034 1.314-.151 1.953.16-.32.26-1.862.415-2.117.233-.27-.193-.095-.302.164-.394m1.297-.395c-.193-.034-.351-.038-.32-.342.663-.079 1.333-.113 2.008.116-.502.403-1.073.272-1.688.226m27.4-51.814c2.265.226 3.785 1.348 4.567 3.44.18.48.196.98.2 1.482.003.236-.076.448-.322.495-.285.054-.438-.147-.515-.392-.05-.157-.071-.326-.094-.49-.276-2.044-1.738-3.437-3.818-3.632-.305-.028-.698.028-.726-.394-.027-.395.319-.48.708-.51M23.656 49.07c.027-.335-.057-.638.215-.856.375.575.361 1.678-.032 2.207-.342-.402-.134-.866-.183-1.352m2.618 1.549c.41-.157.672-.533 1.121-.509-.074.457-1.014 1.113-1.842 1.29-.053-.518.411-.554.72-.781m-.681-3.094c-.08-.168-.03-.328.092-.294.72.2 1.308.611 1.78 1.202-.726-.07-1.25-.544-1.872-.908"/></svg>