<svg xmlns="http://www.w3.org/2000/svg" width="88" height="71" fill="none" viewBox="0 0 88 71"><path fill="#0f5704" d="M86.76 39.603c-6.35-3.538-12.175-3.949-13.544-3.996 1.95-12.192-4.6-23.6-4.927-24.158a1.07 1.07 0 0 0-1.308-.456c-7.082 2.78-10.54 5.257-12.169 6.766C50.663 7.122 44.818.725 44.44.322a1.104 1.104 0 0 0-1.556 0c-.38.406-6.225 6.804-10.373 17.437-1.628-1.51-5.087-3.985-12.169-6.766a1.07 1.07 0 0 0-1.308.456c-.327.554-6.877 11.963-4.929 24.158-1.373.047-7.196.46-13.543 3.996a1.09 1.09 0 0 0-.54 1.168C.07 41.004 4.684 61.733 33.1 61.73a70 70 0 0 0 10.555-.854c3.492.55 7.02.835 10.555.854 28.408 0 33.03-20.725 33.076-20.958a1.1 1.1 0 0 0-.072-.671 1.08 1.08 0 0 0-.452-.497M66.88 13.365c1.687 3.27 7.475 15.937 2.708 27.337-2.864 6.852-9.062 12.057-18.364 15.594 2.428-2.134 4.888-5.108 6.354-9.13 4.427-6.248 6.815-17.811 6.914-18.303a1.1 1.1 0 0 0-.212-.743 1.07 1.07 0 0 0-1.4-.29c-.23.133-.401.346-.485.599-.018.081-1.258 6.086-3.513 11.625.01-.27.045-.518.045-.794a58.8 58.8 0 0 0-3.28-19.274c.85-.946 3.68-3.547 11.233-6.62m-46.438 0c7.547 3.072 10.378 5.671 11.234 6.621a58.8 58.8 0 0 0-3.288 19.28c0 .277.037.528.044.8-2.25-5.547-3.494-11.556-3.512-11.637a1.1 1.1 0 0 0-.422-.8 1.07 1.07 0 0 0-.873-.201 1.07 1.07 0 0 0-.723.536 1.1 1.1 0 0 0-.072.902c.099.493 2.487 12.065 6.916 18.312 1.468 4.018 3.924 6.987 6.352 9.122-9.299-3.535-15.495-8.737-18.359-15.58-4.77-11.39 1.015-24.076 2.703-27.355m-18.11 27.74c6.31-3.287 12.04-3.338 12.1-3.338a1 1 0 0 0 .114-.026 25.4 25.4 0 0 0 1.211 3.806q2.182 5.214 6.622 9.24c-8.74-3.633-12.352-7.144-12.399-7.186a1.07 1.07 0 0 0-1.428.094 1.095 1.095 0 0 0-.077 1.445c.233.234 5.93 5.812 20.62 10.362a52 52 0 0 0 9.023 3.84C10.02 61.67 3.465 45.012 2.333 41.105m41.329-20.87c-.286 0-.56.115-.762.32a1.1 1.1 0 0 0-.316.77v36.798c-3.456-1.723-12.04-7.178-12.04-18.858 0-19.177 10.193-32.975 13.118-36.548 2.932 3.573 13.117 17.37 13.117 36.548 0 11.823-8.58 17.189-12.053 18.876V21.317a1.1 1.1 0 0 0-.314-.76 1.07 1.07 0 0 0-.75-.322M49.2 59.342a52 52 0 0 0 9.017-3.84c14.702-4.54 20.392-10.13 20.626-10.364a1.1 1.1 0 0 0-.078-1.445 1.073 1.073 0 0 0-1.428-.094c-.043.042-3.655 3.546-12.398 7.188q4.434-4.023 6.621-9.242a25 25 0 0 0 1.211-3.805 1 1 0 0 0 .117.025c.06 0 5.75.038 12.093 3.333-1.184 3.825-8.001 20.513-35.781 18.244"/></svg>